# xmcd CD database file
#
# Track frame offsets:
#	150
#	12491
#	25583
#	38191
#	51418
#	63015
#	75387
#	88624
#	98523
#	110937
#	122036
#	134803
#	146447
#	157309
#	169722
#	181393
#	195167
#	206930
#	219560
#	231109
#	242936
#	255306
#
# Disc length: 3562 seconds
#
# Revision: 0
# Processed by: cddbd v1.5.1PL0 Copyright (c) Steve Scherf et al.
# Submitted via: CDex 1.40Release
#
DISCID=360de816
DTITLE=Hank Williams - The Very Best Of
DYEAR=1900
DGENRE=Country
TTITLE0=Your Cheatin' Heart
TTITLE1=Jambalaya (On The Bayou)
TTITLE2=I'm So Lonesome I Could Cry
TTITLE3=Hey Good Lookin'
TTITLE4=Kaw Liga
TTITLE5=Cold Cold Heart
TTITLE6=Help Me Understand
TTITLE7=Honky Tonk Blues
TTITLE8=I Saw The Light
TTITLE9=(I Heard That) Lonesom Whistle
TTITLE10=May You Never Be Alone
TTITLE11=Mansion On The Hill
TTITLE12=Moanin' The Blues
TTITLE13=Move It On Over
TTITLE14=My Son Calls Another Man Daddy
TTITLE15=Ramblin' Man
TTITLE16=Setting The Woods On Fire
TTITLE17=(There'll Be) No Teardrops Tonight
TTITLE18=Window Shopping
TTITLE19=You Win Again
TTITLE20=Lovesick Blues
TTITLE21=Take These Chains From My Heart
EXTD=ID3G: 2
EXTT0=
EXTT1=
EXTT2=
EXTT3=
EXTT4=
EXTT5=
EXTT6=
EXTT7=
EXTT8=
EXTT9=
EXTT10=
EXTT11=
EXTT12=
EXTT13=
EXTT14=
EXTT15=
EXTT16=
EXTT17=
EXTT18=
EXTT19=
EXTT20=
EXTT21=
PLAYORDER=
